<svg width="9" height="14" viewBox="0 0 9 14" fill="none" xmlns="http://www.w3.org/2000/svg">
<path d="M3.95874 0.0177412C3.10147 0.196793 2.35813 0.826185 2.03258 1.64819C1.84811 2.11753 1.85353 2.01715 1.85353 5.02304C1.85353 8.05878 1.84811 7.94755 2.04886 8.42773C2.38797 9.23075 3.09604 9.82488 3.94247 10.0175C4.23546 10.0853 4.75905 10.0853 5.05476 10.0175C6.0938 9.78418 6.91038 8.94047 7.10842 7.896C7.13555 7.74951 7.14369 7.1174 7.14369 5.00948C7.14369 1.97917 7.15183 2.10396 6.94293 1.60479C6.63909 0.87773 6.07481 0.354141 5.31248 0.0964155C5.06289 0.00960255 5.03577 0.00688934 4.56643 0.00146389C4.29786 -0.00396156 4.02385 0.00417709 3.95874 0.0177412ZM5.02763 0.869592C5.66787 1.09205 6.10465 1.55596 6.26471 2.18264C6.31354 2.37796 6.31625 2.50547 6.31625 5.00677C6.31625 7.92856 6.32168 7.83632 6.12906 8.22427C5.46712 9.56173 3.57894 9.58343 2.88443 8.25953C2.83018 8.15916 2.76507 7.98282 2.73523 7.86888C2.68368 7.66812 2.68097 7.55689 2.68097 5.02304C2.68097 2.50547 2.68368 2.37796 2.73251 2.18264C2.90071 1.52611 3.41616 1.00795 4.05369 0.845176C4.27344 0.790917 4.84044 0.804482 5.02763 0.869592Z" fill="white"/>
<path d="M0.212303 7.06953C0.00612292 7.17804 -0.0345706 7.35167 0.0251132 7.88068C0.174323 9.24527 0.909519 10.4552 2.04351 11.1958C2.58609 11.5485 3.33214 11.8252 3.92355 11.8876L4.09175 11.9066V12.4573V13.0108L3.27246 13.0189C2.50199 13.0271 2.44502 13.0298 2.35549 13.084C2.07335 13.2495 2.06521 13.632 2.34464 13.7921L2.45045 13.8545H4.49869H6.54693L6.65273 13.7921C6.93216 13.632 6.92402 13.2495 6.64188 13.084C6.55235 13.0298 6.49538 13.0271 5.72763 13.0189L4.90562 13.0108V12.4573V11.9066L5.07653 11.8876C5.71407 11.8198 6.53065 11.4997 7.10307 11.0928C7.43404 10.8594 7.93322 10.3603 8.16653 10.0293C8.37542 9.73631 8.6657 9.16931 8.76879 8.84919C8.88002 8.50465 8.94513 8.17368 8.9804 7.76132C9.01024 7.38694 9.01024 7.3788 8.95056 7.254C8.80406 6.95287 8.40255 6.93931 8.23435 7.22959C8.19637 7.29741 8.17467 7.40321 8.15839 7.63652C8.11498 8.29305 7.93051 8.86818 7.6131 9.36735C6.95929 10.3847 5.93381 11.0005 4.76184 11.0846C3.08255 11.2013 1.56604 10.1894 1.01803 8.59146C0.92037 8.3039 0.863399 8.00277 0.83627 7.63381C0.811854 7.27842 0.773874 7.18076 0.619238 7.08038C0.50801 7.00442 0.342523 6.99899 0.212303 7.06953Z" fill="white"/>
</svg>
