<svg width="18" height="15" viewBox="0 0 18 15" fill="none" xmlns="http://www.w3.org/2000/svg">
<path d="M6.45904 0.0261002C5.88531 0.145178 5.33322 0.538493 5.04094 1.03284C4.98681 1.12305 4.86052 1.44059 4.75949 1.74009L4.57546 2.28135L3.11766 2.29939L1.65987 2.31744L1.4181 2.41125C0.750548 2.67106 0.310323 3.12211 0.0829933 3.77523L0 4.01339V8.66823V13.3231L0.0938185 13.5648C0.375274 14.2865 0.884059 14.7484 1.59131 14.9288C1.86554 15.001 2.0171 15.001 8.64213 15.001C15.2672 15.001 15.4187 15.001 15.693 14.9288C16.0935 14.8278 16.3785 14.6654 16.6708 14.3695C16.9667 14.0772 17.1291 13.7922 17.2301 13.3916C17.2987 13.121 17.3023 12.9767 17.3023 8.65019C17.3023 4.32371 17.2987 4.17937 17.2301 3.90874C17.0461 3.18706 16.5698 2.67467 15.8229 2.39682C15.6388 2.32465 15.527 2.32104 14.1666 2.29939L12.7088 2.28135L12.5248 1.74009C12.3155 1.12305 12.2217 0.942635 11.9474 0.650354C11.7273 0.415808 11.4639 0.242604 11.1031 0.101876L10.8613 0.00805855L8.73234 0.000841141C7.56322 -0.00276756 6.53843 0.00805855 6.45904 0.0261002ZM10.7206 1.19883C10.9407 1.26378 11.1464 1.42977 11.2474 1.62462C11.2907 1.70762 11.4242 2.08289 11.5505 2.45816C11.6768 2.83344 11.8067 3.17984 11.8356 3.22675C11.868 3.27727 11.9619 3.34583 12.0449 3.38552C12.1856 3.44687 12.3047 3.45408 13.7697 3.45408C15.5703 3.45408 15.5739 3.45408 15.8589 3.74276C16.1693 4.04947 16.1476 3.68863 16.1476 8.65019C16.1476 13.6117 16.1693 13.2509 15.8589 13.5576C15.5486 13.8715 16.2017 13.8463 8.64213 13.8463C1.08252 13.8463 1.73564 13.8715 1.42532 13.5576C1.115 13.2509 1.13665 13.6117 1.13665 8.65019C1.13665 3.68863 1.115 4.04947 1.42532 3.74276C1.71038 3.45408 1.71399 3.45408 3.51459 3.45408C4.96877 3.45408 5.09868 3.44687 5.23579 3.38552C5.43426 3.29531 5.4956 3.18345 5.73736 2.44373C5.98634 1.68957 6.06934 1.51276 6.24976 1.36482C6.50595 1.15192 6.5276 1.14831 8.62769 1.14831C10.2118 1.14471 10.5726 1.15553 10.7206 1.19883Z" fill="white"/>
<path d="M8.15508 4.05223C7.54526 4.14604 7.08699 4.29399 6.59986 4.55019C5.47765 5.14918 4.67297 6.22088 4.39873 7.49464C4.30491 7.92043 4.30491 8.80089 4.39873 9.22668C4.77401 10.9659 6.11273 12.2758 7.86641 12.6222C8.19477 12.6871 9.08966 12.6871 9.41802 12.6222C11.1789 12.2758 12.4816 10.9984 12.8893 9.21946C12.9723 8.85501 12.9723 7.87353 12.8893 7.50186C12.4924 5.759 11.2258 4.49245 9.50102 4.11718C9.24482 4.06305 8.37519 4.01975 8.15508 4.05223ZM9.41802 5.2863C10.5908 5.60745 11.4171 6.44099 11.731 7.62455C11.8284 7.99621 11.8248 8.75037 11.7202 9.13647C11.4063 10.2912 10.5727 11.1247 9.41802 11.4386C9.03192 11.5433 8.27777 11.5469 7.9061 11.4495C6.51326 11.0778 5.56786 9.94836 5.47765 8.54469C5.41991 7.6498 5.75549 6.77657 6.40501 6.12345C6.88132 5.65075 7.42258 5.36208 8.08291 5.23578C8.4221 5.17083 9.08605 5.19609 9.41802 5.2863Z" fill="white"/>
<path d="M14.1811 4.6586C13.8167 4.81737 13.7301 5.3009 14.0152 5.58596C14.4193 5.99371 15.0832 5.62926 14.9786 5.05914C14.9137 4.71995 14.5059 4.51427 14.1811 4.6586Z" fill="white"/>
</svg>
