<svg width="15" height="24" viewBox="0 0 15 24" fill="none" xmlns="http://www.w3.org/2000/svg">
<path d="M11.5115 0.0871048C11.3052 0.171478 10.6255 0.832415 5.7552 5.69804C1.2927 10.1559 0.205201 11.2668 0.116139 11.4543C0.0317638 11.6277 0.00363882 11.7684 0.00363882 11.9934C0.00363882 12.6121 -0.343236 12.2277 5.73645 18.3027C11.0005 23.5668 11.2396 23.8012 11.5021 23.8949C11.8443 24.0215 12.1161 24.0215 12.4583 23.8902C12.6833 23.8105 12.8193 23.7027 13.274 23.248C13.949 22.5777 14.038 22.4184 14.0427 21.9074C14.0427 21.6355 14.0193 21.4809 13.9536 21.3449C13.8927 21.2184 12.3927 19.6809 9.28958 16.573L4.71458 11.9934L9.29426 7.40898C11.8115 4.89179 13.9068 2.75429 13.9536 2.66523C13.9958 2.57617 14.0427 2.35117 14.0568 2.16835C14.0896 1.65273 13.963 1.41835 13.2786 0.738667C12.8193 0.283979 12.6833 0.180855 12.4583 0.0964794C12.1255 -0.0300827 11.8208 -0.0300827 11.5115 0.0871048Z" fill="#D9D9D9"/>
</svg>
