<svg width="14" height="12" viewBox="0 0 14 12" fill="none" xmlns="http://www.w3.org/2000/svg">
<g id="Compare">
<path id="Vector" d="M4.1797 0.0546055C3.96482 0.150109 3.80664 0.391851 3.80664 0.624641C3.80664 0.863399 3.84245 0.908166 4.66617 1.73487L5.46303 2.53471H3.03665C1.2758 2.53471 0.571466 2.54366 0.469994 2.57052C0.273018 2.61827 0.0670891 2.83017 0.0193374 3.03013C-0.05229 3.32261 0.079027 3.60614 0.34763 3.74044L0.505808 3.81803H2.98292H5.46004L4.66916 4.61489C3.95288 5.33713 3.8723 5.42965 3.83649 5.555C3.71114 6.02655 4.10509 6.45034 4.58261 6.35186L4.74675 6.31903L6.13155 4.94318C7.05972 4.01501 7.53127 3.52555 7.57007 3.44497C7.63871 3.29873 7.6417 3.07788 7.58201 2.92866C7.51933 2.77645 4.88702 0.141155 4.71392 0.05759C4.56171 -0.0170221 4.33788 -0.0200067 4.1797 0.0546055Z" fill="white"/>
<path id="Vector_2" d="M9.29804 5.14933C9.16672 5.20604 6.51352 7.8473 6.42995 8.0025C6.36131 8.1368 6.35534 8.37257 6.41802 8.52776C6.47472 8.66207 9.07719 11.2854 9.23835 11.366C9.39652 11.4496 9.52486 11.4675 9.68304 11.4287C9.8621 11.3869 10.0352 11.2466 10.1068 11.0884C10.1755 10.9362 10.1785 10.6826 10.1158 10.5542C10.0889 10.5005 9.72482 10.1125 9.30401 9.68873L8.537 8.92171H10.9634C12.7242 8.92171 13.4286 8.91276 13.53 8.8859C13.727 8.83815 13.9329 8.62625 13.9807 8.42629C14.0523 8.13381 13.921 7.85029 13.6524 7.71599L13.4942 7.63839H11.0171H8.537L9.30401 6.86839C9.80838 6.36402 10.0889 6.06258 10.1188 5.99096C10.1426 5.92828 10.1635 5.81189 10.1635 5.72832C10.1635 5.2896 9.69796 4.97922 9.29804 5.14933Z" fill="white"/>
</g>
</svg>
