<svg width="17" height="19" viewBox="0 0 17 19" fill="none" xmlns="http://www.w3.org/2000/svg">
<path d="M6.39963 0.0518742C6.1926 0.163204 6.17041 0.246702 6.00404 1.51905C5.91531 2.18306 5.84137 2.73971 5.84137 2.76357C5.84137 2.78345 5.6861 2.88285 5.50124 2.98225C5.31269 3.08166 4.98735 3.28444 4.77292 3.43553L4.38842 3.70988L3.31258 3.24468C2.15909 2.75164 2.03339 2.71586 1.86702 2.87092C1.71544 3.01804 0 6.23868 0 6.38182C0 6.44543 0.0295766 6.55279 0.0665473 6.61243C0.0998209 6.67207 0.536075 7.06571 1.03518 7.48717L1.94096 8.25058L1.92248 8.48915C1.8966 8.80326 1.90769 9.69788 1.93357 9.89271L1.95945 10.0478L1.01669 10.835C0.0406678 11.6541 -0.0295766 11.7297 0.0110912 11.9802C0.0332736 12.1273 1.69696 15.2326 1.84114 15.3956C2.0223 15.6064 2.06666 15.5944 3.283 15.0736L4.39952 14.5925L4.68049 14.8111C4.83577 14.9304 5.16111 15.1372 5.40142 15.2684C5.64543 15.4036 5.84137 15.5229 5.84137 15.5427C5.84137 15.5586 5.91531 16.1233 6.00404 16.7992C6.16672 18.0199 6.17041 18.0238 6.28132 18.1471L6.39593 18.2703L8.23708 18.2823C9.64936 18.2862 10.0967 18.2783 10.1632 18.2425C10.3666 18.1272 10.3851 18.0517 10.5625 16.7356C10.6513 16.0477 10.7289 15.4831 10.7326 15.4831C10.7363 15.4791 10.9064 15.3877 11.1097 15.2763C11.3167 15.165 11.6384 14.9662 11.8269 14.827L12.1745 14.5805L13.2503 15.0457C14.4371 15.5586 14.5406 15.5825 14.707 15.3956C14.8696 15.2207 16.5629 12.0398 16.5629 11.9126C16.5629 11.8529 16.5407 11.7575 16.5111 11.6979C16.4815 11.6382 16.0416 11.2406 15.5314 10.8152L14.6034 10.0398L14.6293 9.8609C14.6626 9.63426 14.6626 8.6641 14.6256 8.42951L14.6034 8.25058L15.5425 7.46332C16.0564 7.02992 16.5 6.62833 16.5222 6.57665C16.5962 6.39772 16.5666 6.26651 16.3411 5.84504C15.4168 4.09954 14.755 2.91864 14.6663 2.84707C14.5997 2.79538 14.5147 2.76755 14.426 2.77152C14.3483 2.7755 13.827 2.97828 13.2281 3.23672L12.1671 3.69795L11.8898 3.48324C11.7345 3.36396 11.4092 3.1572 11.1652 3.02599C10.9212 2.89081 10.7215 2.7755 10.7215 2.76755C10.7215 2.76357 10.6476 2.20692 10.5588 1.53098C10.3851 0.23875 10.3629 0.163204 10.1632 0.0518742C10.0967 0.0121117 9.63087 0.000185013 8.28144 0.000185013C6.93201 0.000185013 6.46618 0.0121117 6.39963 0.0518742ZM8.81012 6.01999C9.43123 6.14723 9.971 6.46929 10.4147 6.97028C10.7215 7.3162 10.9101 7.64224 11.0542 8.05973C11.5275 9.45932 11.0469 10.9941 9.88227 11.8092C9.37947 12.1631 8.92473 12.3062 8.28144 12.3062C7.63815 12.3062 7.18341 12.1631 6.68061 11.8092C6.03732 11.3599 5.62325 10.7317 5.40512 9.88078C5.32009 9.54281 5.32378 8.73964 5.41251 8.36987C5.80071 6.75159 7.30541 5.70986 8.81012 6.01999Z" fill="white"/>
</svg>
