<svg width="12" height="12" viewBox="0 0 12 12" fill="none" xmlns="http://www.w3.org/2000/svg">
<path d="M2.09345 0.0518303C1.07948 0.264058 0.259389 1.08939 0.0497817 2.10598C0.00262009 2.33393 0 2.52257 0 5.99943C0 9.47628 0.00262009 9.66493 0.0497817 9.89288C0.254148 10.8807 0.993013 11.651 2.00437 11.9287L2.21397 11.9863H6H9.78603L10.0087 11.9261C10.8838 11.6876 11.5729 11.0457 11.8611 10.2047C11.9974 9.80118 12 9.76711 12 7.18633C12 4.85707 11.9974 4.78895 11.9476 4.69201C11.7956 4.3907 11.3843 4.39594 11.2166 4.70249C11.1799 4.77323 11.1721 4.96973 11.1616 6.49725L11.1485 8.21078L9.99301 6.88764C9.35895 6.16187 8.77467 5.50947 8.69869 5.44135C8.5441 5.30249 8.26375 5.15838 8.04367 5.10598C7.86026 5.06144 7.49607 5.06144 7.31004 5.10598C7.10044 5.15576 6.80175 5.30773 6.6524 5.44397C6.57904 5.50947 6.16245 5.97323 5.72227 6.47366C5.2821 6.97672 4.9179 7.38807 4.91528 7.38807C4.91004 7.38807 4.7869 7.24135 4.64017 7.06056C4.3048 6.65445 4.11878 6.48152 3.90131 6.3741C3.64454 6.24572 3.41397 6.20118 3.1179 6.2169C2.80611 6.23524 2.59913 6.30598 2.34236 6.47628C2.16943 6.59157 2.06987 6.69899 1.49869 7.38807L0.851528 8.16886L0.843668 5.29725C0.835808 2.07192 0.825327 2.2527 1.02969 1.83349C1.11616 1.6527 1.18166 1.56624 1.37555 1.37498C1.56681 1.18109 1.65328 1.11821 1.83406 1.02912C2.24541 0.829997 2.11703 0.837857 4.77118 0.837857C6.24629 0.837857 7.1738 0.827376 7.22882 0.811656C7.35196 0.777595 7.48821 0.63873 7.52227 0.518207C7.56943 0.34004 7.47249 0.122573 7.31004 0.0387306C7.24454 0.00466919 6.89869 -0.000571251 4.77642 0.00204945C2.50742 0.00204945 2.30044 0.00728893 2.09345 0.0518303ZM7.97817 5.96799C8.12227 6.04135 8.17205 6.09637 9.68122 7.82039C10.4148 8.6562 11.041 9.37148 11.0777 9.41078L11.1406 9.4789L11.0987 9.69899C11.0699 9.83786 11.0122 10.0055 10.9336 10.1627C10.8367 10.3671 10.7764 10.4483 10.6009 10.6213C10.3651 10.8571 10.1869 10.9724 9.89869 11.0772L9.70742 11.1479H6C1.98865 11.1479 2.25327 11.1558 1.92838 11.0169C1.61659 10.8833 1.28122 10.5872 1.09258 10.2807C0.990393 10.113 0.880349 9.8038 0.854148 9.61515L0.838428 9.49725L1.48297 8.71122C2.78253 7.12869 2.71441 7.20729 2.87686 7.13131C3.08646 7.03698 3.29345 7.03698 3.49782 7.13655C3.63144 7.20467 3.69432 7.26755 4.11616 7.77847C4.38341 8.10074 4.62707 8.37061 4.68472 8.40467C4.80786 8.48065 4.98865 8.47279 5.11441 8.38371C5.16157 8.34965 5.63843 7.82301 6.17031 7.20991C6.7048 6.59943 7.17642 6.07017 7.22096 6.03611C7.2655 6.00205 7.34672 5.95489 7.40437 5.93393C7.54847 5.8789 7.84192 5.89725 7.97817 5.96799Z" fill="white"/>
<path d="M9.69192 0.0600495C9.64213 0.0914907 9.57663 0.170094 9.54519 0.235595C9.48755 0.345639 9.48493 0.3797 9.48493 1.01376V1.67664H8.79323C8.12248 1.67664 8.10152 1.67926 8.01506 1.73691C7.88668 1.82075 7.79759 2.01201 7.82117 2.15088C7.84475 2.28974 7.98886 2.45219 8.11724 2.48887C8.17226 2.50197 8.49978 2.51507 8.85087 2.51507H9.48493V3.14913C9.48493 3.50022 9.49803 3.82774 9.51113 3.88276C9.54781 4.01114 9.71026 4.15525 9.84912 4.17883C9.98799 4.20241 10.1793 4.11332 10.2631 3.98494C10.3207 3.89848 10.3234 3.87752 10.3234 3.20677V2.51507H10.9862C11.6203 2.51507 11.6544 2.51245 11.7644 2.45481C11.8299 2.42337 11.9085 2.35787 11.94 2.30808C12.0526 2.13778 12.0002 1.86791 11.8325 1.74739C11.7539 1.69236 11.7225 1.68974 11.0439 1.67664L10.3365 1.66354L10.3234 0.95612C10.3103 0.277517 10.3076 0.246076 10.2526 0.167473C10.1321 -0.000212193 9.86222 -0.0526142 9.69192 0.0600495Z" fill="white"/>
<path d="M2.83485 1.71321C2.29249 1.84684 1.81563 2.33417 1.70559 2.87653C1.60079 3.38221 1.74489 3.88264 2.0986 4.25732C2.37895 4.55077 2.6986 4.70273 3.10734 4.73417C4.01389 4.80229 4.80253 4.01365 4.73441 3.1071C4.72393 2.98919 4.70035 2.83723 4.67939 2.76911C4.51957 2.25819 4.08987 1.84684 3.57633 1.71583C3.39031 1.66867 3.02874 1.66867 2.83485 1.71321ZM3.50035 2.57784C3.72568 2.68264 3.90384 2.95251 3.90384 3.18832C3.90384 3.55251 3.62874 3.85906 3.26716 3.89574C2.74577 3.94815 2.35537 3.39531 2.57808 2.92107C2.6462 2.77173 2.83747 2.58832 2.96585 2.54902C3.12568 2.49662 3.35363 2.50972 3.50035 2.57784Z" fill="white"/>
</svg>
