<svg width="17" height="19" viewBox="0 0 17 19" fill="none" xmlns="http://www.w3.org/2000/svg">
<path d="M7.73513 0.0384369C5.72889 0.242058 3.83557 1.21372 2.43386 2.75695C1.87583 3.36781 1.53703 3.85007 1.12847 4.61453C-0.103841 6.91509 -0.339674 9.69075 0.484082 12.1628C0.91589 13.4595 1.55364 14.5669 2.43386 15.5314C4.10462 17.3712 6.44635 18.3785 8.81465 18.275C10.9903 18.1821 12.9534 17.2711 14.4813 15.6458C14.9895 15.1028 15.1091 14.9277 15.1091 14.7277V14.5633L14.3053 13.6917C13.2457 12.5486 13.2523 12.5522 12.8105 13.088C12.0665 13.9918 11.2593 14.5741 10.2695 14.9313C9.30957 15.2742 8.17358 15.3278 7.18707 15.0706C4.49325 14.3669 2.66305 11.6841 2.8557 8.72266C3.07161 5.37186 5.78203 2.83911 8.89769 3.07131C9.6982 3.13204 10.2529 3.28564 10.9405 3.64287C11.4487 3.90722 11.8406 4.18943 12.3355 4.65026C12.3522 4.66812 12.0333 5.03964 11.5483 5.56476C11.0999 6.05059 10.708 6.49713 10.6781 6.56143C10.605 6.71504 10.6116 6.95081 10.6947 7.14371C10.7777 7.34376 10.8707 7.45093 11.0302 7.54024C11.1497 7.60454 11.2627 7.60811 13.8037 7.60811C16.2949 7.60811 16.461 7.60096 16.5872 7.54024C16.7566 7.45807 16.9227 7.25803 16.9659 7.08298C16.9891 6.99368 17.0024 6.00415 17.0024 4.193C17.0024 1.10655 17.0057 1.16728 16.7798 0.967232C16.6437 0.849346 16.4111 0.749321 16.265 0.749321C16.0557 0.749321 15.9229 0.860064 15.1589 1.68169C14.7371 2.1318 14.3817 2.49974 14.3684 2.49974C14.3551 2.49974 14.1956 2.36399 14.013 2.19967C12.2425 0.599285 9.95728 -0.190189 7.73513 0.0384369Z" fill="white"/>
</svg>
