<svg width="79" height="31" viewBox="0 0 79 31" fill="none" xmlns="http://www.w3.org/2000/svg">
<path d="M4.85453 8.07505C4.15801 8.18968 3.12378 8.63777 2.52224 9.06501C1.85739 9.55478 1.35083 10.1696 0.981459 10.9511C0.717626 11.5034 0.685966 11.6806 0.685966 12.7122C0.685966 13.7959 0.707073 13.9002 1.03423 14.5566C1.72019 15.9322 2.94438 16.7762 5.77267 17.8079C8.70649 18.8812 9.49799 19.5689 9.49799 21.0487C9.49799 22.6534 8.2527 23.6538 6.25812 23.6434C5.47718 23.6434 5.31888 23.6017 4.67512 23.2787C4.08414 22.9869 3.86252 22.7889 3.39817 22.1949C3.09212 21.7885 2.76497 21.2362 2.65944 20.9653C2.5539 20.6839 2.43782 20.4547 2.41671 20.4443C2.38505 20.4338 1.83628 20.6318 1.18197 20.8819C0.295493 21.2154 0 21.3821 0 21.5176C0 21.6218 0.200513 22.0907 0.44324 22.5701C1.06589 23.8101 2.16343 24.8834 3.37706 25.4566C4.53793 25.9984 5.29777 26.1443 6.72247 26.0714C9.11807 25.9568 10.891 24.9147 11.7353 23.1119C12.0308 22.5075 12.073 22.2783 12.1152 21.2988C12.168 19.9962 11.9569 19.1 11.387 18.256C10.6272 17.1201 9.62463 16.5157 6.77523 15.4841C4.91785 14.8172 4.35852 14.5358 3.80975 14.0044C3.37706 13.5667 3.27153 13.3166 3.27153 12.6184C3.27153 11.816 3.68311 11.2221 4.52738 10.8052C6.12093 10.0237 7.92555 10.4093 8.83313 11.7431C9.01254 12.014 9.18139 12.2954 9.2025 12.3683C9.24471 12.4725 9.52965 12.3892 10.2789 12.0974C11.767 11.5034 11.7142 11.5659 11.2604 10.7636C10.7855 9.92992 9.76183 8.9608 8.92811 8.56482C7.84112 8.04379 6.22646 7.8458 4.85453 8.07505Z" fill="#076EFF"/>
<path d="M53.6108 17.0889V25.79H54.8772H56.1436V23.8831V21.9865L57.1357 21.007L58.1277 20.0275L58.5287 20.6423C58.7503 20.9757 59.3624 21.9136 59.8901 22.716C60.4177 23.5184 61.0826 24.5396 61.3675 24.9772L61.8952 25.79H63.4571C64.3119 25.79 65.0084 25.7588 65.0084 25.7275C65.0084 25.665 63.9425 24.0915 61.3886 20.3713L59.9217 18.2351L62.3595 15.8801C63.6998 14.5879 64.7974 13.5042 64.7974 13.4625C64.7974 13.4208 64.0692 13.3896 63.1827 13.3896H61.5786L58.9403 15.9947C57.4945 17.4223 56.2703 18.5998 56.2281 18.5998C56.1753 18.5998 56.1436 16.2969 56.1436 13.4938V8.38769H54.8772H53.6108V17.0889Z" fill="#076EFF"/>
<path d="M20.4734 13.1079C19.5658 13.3059 18.7426 13.7748 18.0883 14.4521C17.7717 14.7856 17.4551 15.0565 17.4024 15.0565C17.3496 15.0565 17.3074 14.6814 17.3074 14.2229V13.3892H16.0938H14.8801V22.1946V31H16.2098H17.5501L17.4974 27.7384C17.4657 25.9564 17.4024 24.4038 17.3602 24.2996C17.223 23.9765 17.4657 24.112 18.1094 24.7268C18.4788 25.0811 19.0381 25.4875 19.4497 25.6855C20.7267 26.3003 22.7107 26.2482 24.1671 25.55C25.0957 25.102 26.3094 23.8932 26.7843 22.9553C27.3753 21.757 27.5758 20.7462 27.5125 19.2248C27.4491 17.745 27.217 16.8697 26.5943 15.8485C26.1405 15.1086 24.9797 14.0041 24.2937 13.6602C23.1539 13.0975 21.5709 12.8578 20.4734 13.1079ZM22.6896 15.6713C24.2831 16.4737 25.1169 18.016 24.9797 19.9021C24.9058 20.892 24.6736 21.559 24.1671 22.2259C22.7318 24.1016 20.2307 24.31 18.5949 22.6948C16.3893 20.5169 17.2441 16.432 20.0829 15.515C20.7583 15.2962 22.0986 15.3796 22.6896 15.6713Z" fill="#076EFF"/>
<path d="M33.6121 13.1181C32.2297 13.389 30.8261 14.1393 30.1401 14.9938L29.8129 15.3897L30.0662 15.5565C30.2034 15.6503 30.6044 15.9525 30.9422 16.2234L31.5648 16.7132L31.9975 16.2859C32.2297 16.0567 32.7362 15.7232 33.1161 15.5461C33.7599 15.2439 33.9182 15.2126 34.8363 15.2126C35.7861 15.2126 35.8917 15.2334 36.5776 15.5773C37.5274 16.0567 37.8862 16.5881 37.9918 17.6927C38.034 18.0991 38.0551 18.4638 38.034 18.4847C38.0129 18.5055 37.844 18.4638 37.6541 18.3909C36.3349 17.9115 34.3931 17.7552 33.1372 18.0157C30.7839 18.5055 29.433 19.9331 29.4225 21.9339C29.4119 22.8821 29.5386 23.3719 29.9924 24.1222C30.6572 25.2059 31.9131 25.9458 33.3483 26.0917C34.9524 26.248 36.2927 25.8207 37.3164 24.7995C37.633 24.4869 37.9179 24.2264 37.939 24.2264C37.9601 24.2264 37.9918 24.5703 38.0129 24.9767L38.0445 25.7374L39.2898 25.7686L40.5246 25.7999V21.3712C40.5246 17.3384 40.5035 16.9007 40.3241 16.3172C39.7647 14.5248 38.4772 13.4932 36.3666 13.1285C35.2796 12.9513 34.4986 12.9409 33.6121 13.1181ZM36.5671 19.9748C36.852 20.0373 37.2953 20.1728 37.5485 20.277L38.0129 20.475L37.9707 21.0273C37.8651 22.1944 36.9364 23.3927 35.8283 23.7991C35.1529 24.0492 34.087 24.0909 33.4116 23.8929C32.4302 23.6012 31.8392 22.5799 32.0714 21.5587C32.4196 20.0373 34.0765 19.4538 36.5671 19.9748Z" fill="#076EFF"/>
<path d="M49.189 13.0867C48.1231 13.2639 47.0678 13.9099 46.4979 14.754C46.308 15.0354 46.118 15.2333 46.0863 15.1917C46.0441 15.1604 46.0125 14.7332 46.0125 14.2538V13.3889H44.7988H43.5852V19.5891V25.7998L44.8833 25.7685L46.1708 25.7373L46.2235 21.8817L46.2763 18.0261L46.5718 17.4321C47.1206 16.3171 48.0493 15.6398 49.1574 15.5147C49.6006 15.4626 50.6559 15.6293 51.2153 15.8377C51.3841 15.9107 51.3947 15.8065 51.3947 14.5977C51.3947 13.3264 51.3841 13.2743 51.1625 13.1909C50.7509 13.045 49.78 12.9929 49.189 13.0867Z" fill="#076EFF"/>
<path d="M65.5782 13.7227C65.6626 13.9102 66.2114 15.1399 66.8024 16.4633C70.2427 24.1328 70.6015 24.9352 70.6015 25.1019C70.6015 25.2478 69.4829 27.7175 68.3748 30.0413C68.1532 30.5206 67.9632 30.9374 67.9632 30.9583C67.9632 30.9895 68.5859 30.9895 69.3457 30.9791L70.7282 30.9479L71.2453 29.7495C73.0183 25.7063 73.7253 24.0911 74.4007 22.5593C74.8229 21.611 75.6038 19.8291 76.142 18.5995C76.6803 17.3699 77.3979 15.7442 77.725 15.0044C78.0522 14.2541 78.3477 13.5872 78.3793 13.5142C78.4216 13.41 78.1366 13.3892 76.9863 13.41L75.5405 13.4413L74.1791 16.7759C73.4193 18.6099 72.6489 20.4856 72.4695 20.9337C72.2795 21.3922 72.079 21.7778 72.0262 21.7986C71.9313 21.8299 70.2744 18.068 68.7442 14.3479L68.3431 13.3892H66.8868H65.4304L65.5782 13.7227Z" fill="#076EFF"/>
<path d="M49.6876 9.57676C49.3051 7.10396 47.3242 5.1631 44.8003 4.78838C47.3242 4.41366 49.3051 2.4728 49.6876 0C50.0701 2.4728 52.051 4.41366 54.5749 4.78838C52.051 5.1631 50.0701 7.10396 49.6876 9.57676Z" fill="#076EFF"/>
</svg>
