<svg width="16" height="16" viewBox="0 0 16 16" fill="none" xmlns="http://www.w3.org/2000/svg">
<g clip-path="url(#clip0_335_912)">
<path d="M0.24375 0.065625C0.171875 0.103125 0.1 0.175 0.0625 0.25C0.003125 0.36875 0 0.43125 0 1.7875C0 3.10625 0.003125 3.2125 0.059375 3.3125C0.15 3.48438 0.259375 3.54688 0.46875 3.54688C0.678125 3.54688 0.7875 3.48438 0.878125 3.3125C0.934375 3.2125 0.9375 3.11562 0.9375 2.07187V0.9375H2.07188C3.11563 0.9375 3.2125 0.934375 3.3125 0.878125C3.48438 0.7875 3.54688 0.678125 3.54688 0.46875C3.54688 0.259375 3.48438 0.15 3.3125 0.059375C3.2125 0.00312495 3.10938 0 1.78125 0C0.428125 0.00312495 0.353125 0.0062499 0.24375 0.065625Z" fill="white"/>
<path d="M12.6875 0.059375C12.5156 0.15 12.4531 0.259375 12.4531 0.46875C12.4531 0.678125 12.5156 0.7875 12.6875 0.878125C12.7875 0.934375 12.8844 0.9375 13.9281 0.9375H15.0625V2.07187C15.0625 3.11562 15.0656 3.2125 15.1219 3.3125C15.2125 3.48438 15.3219 3.54688 15.5312 3.54688C15.7406 3.54688 15.85 3.48438 15.9406 3.3125C15.9969 3.2125 16 3.10625 16 1.7875C16 0.43125 15.9969 0.36875 15.9375 0.25C15.8969 0.16875 15.8312 0.103125 15.75 0.0625C15.6313 0.00312495 15.5688 0 14.2125 0C12.8938 0 12.7875 0.00312495 12.6875 0.059375Z" fill="white"/>
<path d="M3.0313 2.79062C2.87505 2.86875 2.87505 2.87187 2.8813 4.54062L2.89068 6.1L2.97818 6.175C3.06568 6.25 3.06568 6.25 3.84693 6.25C4.34693 6.25 4.65318 6.2375 4.6938 6.21562C4.81568 6.15 4.8438 6.00625 4.8438 5.4125V4.85312L4.92505 4.77812L5.0063 4.70312L5.87505 4.69375C6.83443 4.68437 6.94068 4.7 7.00005 4.85937C7.0438 4.97187 7.0438 12.2781 7.00005 12.3906C6.95005 12.525 6.80318 12.5625 6.33443 12.5625C5.74068 12.5625 5.7813 12.4937 5.7813 13.5062C5.7813 13.9469 5.79068 14.3312 5.80005 14.3594C5.85318 14.4969 5.8813 14.5 8.00005 14.5C10.1188 14.5 10.1469 14.4969 10.2001 14.3594C10.2094 14.3312 10.2188 13.9469 10.2188 13.5031C10.2188 12.4937 10.2594 12.5625 9.66255 12.5625C9.19693 12.5625 9.05005 12.525 9.00005 12.3906C8.9563 12.2781 8.9563 4.97187 9.00005 4.85937C9.05943 4.7 9.16568 4.68437 10.1251 4.69375C11.2501 4.70625 11.1469 4.62812 11.1626 5.475L11.1719 6.1L11.2594 6.175L11.3469 6.25H12.1407H12.9344L13.0219 6.175L13.1094 6.1V4.50312V2.90937L13.0376 2.8375L12.9657 2.76562L8.03755 2.75937C4.12505 2.75312 3.0938 2.75937 3.0313 2.79062Z" fill="white"/>
<path d="M0.262554 12.4812C0.209429 12.5031 0.131305 12.5719 0.0906795 12.6281L0.0156795 12.7344L0.00630451 14.1781C5.45133e-05 15.5812 5.45147e-05 15.6281 0.0625545 15.75C0.10318 15.8312 0.168804 15.8969 0.250054 15.9375C0.368804 15.9969 0.431305 16 1.78755 16C3.1063 16 3.21255 15.9969 3.31255 15.9406C3.48443 15.85 3.54693 15.7406 3.54693 15.5312C3.54693 15.3219 3.48443 15.2125 3.31255 15.1219C3.21255 15.0656 3.11568 15.0625 2.07193 15.0625H0.937554V13.9281C0.937554 12.8844 0.934429 12.7875 0.878179 12.6875C0.846929 12.6281 0.784429 12.5531 0.740679 12.5187C0.637554 12.4437 0.390679 12.4219 0.262554 12.4812Z" fill="white"/>
<path d="M15.325 12.4812C15.2719 12.5031 15.1938 12.5719 15.1531 12.6281L15.0781 12.7344L15.0688 13.8969L15.0594 15.0625H13.9281C12.8844 15.0625 12.7875 15.0656 12.6875 15.1219C12.5156 15.2125 12.4531 15.3219 12.4531 15.5312C12.4531 15.7406 12.5156 15.85 12.6875 15.9406C12.7875 15.9969 12.8938 16 14.2125 16C15.5688 16 15.6313 15.9969 15.75 15.9375C15.8312 15.8969 15.8969 15.8312 15.9375 15.75C15.9969 15.6312 16 15.5687 16 14.2125C16 12.8937 15.9969 12.7875 15.9406 12.6875C15.9094 12.6281 15.8469 12.5531 15.8031 12.5187C15.7 12.4437 15.4531 12.4219 15.325 12.4812Z" fill="white"/>
</g>
<defs>
<clipPath id="clip0_335_912">
<rect width="16" height="16" fill="white"/>
</clipPath>
</defs>
</svg>
