<?xml version="1.0" standalone="no"?>
<!DOCTYPE svg PUBLIC "-//W3C//DTD SVG 20010904//EN"
 "http://www.w3.org/TR/2001/REC-SVG-20010904/DTD/svg10.dtd">
<svg version="1.0" xmlns="http://www.w3.org/2000/svg"
 width="749.000000pt" height="745.000000pt" viewBox="0 0 749.000000 745.000000"
 preserveAspectRatio="xMidYMid meet">

<g transform="translate(0.000000,745.000000) scale(0.100000,-0.100000)"
fill="#1a2f59" stroke="none">
<path d="M3515 7419 c-501 -22 -996 -153 -1455 -385 -1236 -623 -2011 -1880
-2010 -3263 0 -561 126 -1091 380 -1606 476 -964 1340 -1661 2389 -1925 288
-72 553 -104 876 -104 425 0 784 59 1180 194 1174 401 2071 1383 2364 2590 73
300 96 510 96 860 0 369 -26 580 -112 915 -233 912 -831 1712 -1653 2210 -479
291 -1106 486 -1638 510 -64 3 -148 7 -187 8 -38 2 -142 0 -230 -4z m605 -363
c962 -133 1793 -652 2324 -1451 299 -449 468 -912 538 -1470 18 -152 16 -591
-5 -750 -84 -631 -314 -1179 -704 -1670 -110 -140 -365 -395 -508 -509 -375
-300 -833 -527 -1280 -634 -313 -76 -519 -97 -873 -89 -258 5 -363 16 -572 58
-525 106 -1043 355 -1460 702 -125 104 -353 336 -454 462 -408 512 -642 1078
-718 1740 -18 158 -15 549 6 715 48 390 145 717 316 1065 224 458 521 827 919
1144 494 393 1098 636 1746 701 135 13 589 4 725 -14z"/>
<path d="M2090 5618 c-160 -62 -241 -255 -179 -425 20 -55 56 -93 687 -725
l667 -668 -667 -667 c-631 -633 -667 -671 -687 -726 -45 -123 -19 -257 67
-345 72 -73 129 -97 232 -97 157 0 102 -46 853 704 l667 666 668 -666 c751
-750 695 -704 852 -704 68 1 94 5 132 24 63 30 121 88 155 153 24 46 28 65 28
138 0 157 46 101 -704 852 l-666 668 661 662 c524 526 666 673 685 713 34 73
34 208 -1 280 -34 71 -108 139 -177 165 -77 29 -196 25 -263 -9 -32 -16 -240
-218 -707 -684 l-663 -662 -667 666 c-633 632 -671 668 -726 688 -76 28 -173
27 -247 -1z"/>
</g>
</svg>
