<svg width="10" height="11" viewBox="0 0 10 11" fill="none" xmlns="http://www.w3.org/2000/svg">
<path d="M4.68731 0.0385799C4.65294 0.0600643 3.58731 1.11709 2.31973 2.38467C0.48282 4.22588 0.0166094 4.70499 0.00371881 4.76084C-0.0156171 4.85538 0.0423907 4.96924 0.132625 5.01221C0.19493 5.04229 0.362508 5.04659 1.47325 5.04659H2.74298V7.91475C2.74298 10.3468 2.74727 10.7958 2.77305 10.8581C2.83536 11.0064 2.72579 10.9999 4.83985 10.9935L6.74337 10.987L6.80567 10.9161L6.86798 10.8474V7.94698V5.04659H8.1377C9.24845 5.04659 9.41602 5.04229 9.47833 5.01221C9.56856 4.96924 9.62657 4.85538 9.60723 4.76084C9.59434 4.70499 9.12384 4.22374 7.28048 2.37823C6.0086 1.1042 4.93653 0.0471735 4.90001 0.0299864C4.80977 -0.0129824 4.76466 -0.0108347 4.68731 0.0385799Z" fill="white"/>
</svg>
