<svg width="22" height="10" viewBox="0 0 22 10" fill="none" xmlns="http://www.w3.org/2000/svg">
<path d="M7.25977 9H6.11133L4.01367 5.42578H1.93945V9H0.908203V0.210938H3.94922C4.57812 0.210938 5.11914 0.316406 5.57227 0.527344C6.02539 0.738281 6.375 1.03906 6.62109 1.42969C6.86719 1.81641 6.99023 2.2793 6.99023 2.81836C6.99023 3.44727 6.82227 3.97461 6.48633 4.40039C6.1543 4.82617 5.6875 5.12109 5.08594 5.28516L7.25977 9ZM1.93945 4.51172H3.88477C4.52148 4.51172 5.02148 4.36133 5.38477 4.06055C5.75195 3.75977 5.93555 3.3457 5.93555 2.81836C5.93555 2.29102 5.75391 1.87695 5.39062 1.57617C5.02734 1.27539 4.52539 1.125 3.88477 1.125H1.93945V4.51172ZM13.9746 9H13.1309L13.0957 8.05078C12.8809 8.39453 12.5977 8.6582 12.2461 8.8418C11.8984 9.02539 11.4863 9.11719 11.0098 9.11719C10.2324 9.11719 9.61719 8.88281 9.16406 8.41406C8.71484 7.94141 8.49023 7.29688 8.49023 6.48047V3.14062H9.45117V6.41016C9.45117 6.96484 9.60742 7.4082 9.91992 7.74023C10.2363 8.07227 10.6562 8.23828 11.1797 8.23828C11.7266 8.23828 12.168 8.05859 12.5039 7.69922C12.8438 7.33984 13.0137 6.87109 13.0137 6.29297V3.14062H13.9746V9ZM21.2754 9H20.3145V5.73047C20.3145 5.17578 20.1562 4.73242 19.8398 4.40039C19.5234 4.06836 19.1035 3.90234 18.5801 3.90234C18.0371 3.90234 17.5957 4.08203 17.2559 4.44141C16.9199 4.79688 16.752 5.26562 16.752 5.84766V9H15.791V3.14062H16.6289L16.6641 4.08984C16.8789 3.74609 17.1621 3.48242 17.5137 3.29883C17.8652 3.11523 18.2793 3.02344 18.7559 3.02344C19.5332 3.02344 20.1465 3.25781 20.5957 3.72656C21.0488 4.19531 21.2754 4.83789 21.2754 5.6543V9Z" fill="white"/>
</svg>
