<?xml version="1.0" standalone="no"?>
<!DOCTYPE svg PUBLIC "-//W3C//DTD SVG 20010904//EN"
 "http://www.w3.org/TR/2001/REC-SVG-20010904/DTD/svg10.dtd">
<svg version="1.0" xmlns="http://www.w3.org/2000/svg"
 width="512.000000pt" height="512.000000pt" viewBox="0 0 512.000000 512.000000"
 preserveAspectRatio="xMidYMid meet">

<g transform="translate(0.000000,512.000000) scale(0.100000,-0.100000)"
fill="#ffffff" stroke="none">
<path d="M1518 5060 c-249 -42 -463 -230 -543 -477 l-17 -53 -420 0 c-400 0
-421 -1 -458 -20 -45 -23 -80 -81 -80 -132 0 -46 38 -107 80 -129 32 -18 65
-19 456 -19 l422 0 17 -52 c72 -222 242 -391 465 -460 97 -30 281 -32 375 -4
178 54 352 195 428 346 112 225 100 490 -31 691 -150 229 -429 353 -694 309z
m183 -300 c123 -23 229 -106 283 -220 28 -58 31 -75 31 -160 0 -85 -3 -102
-31 -160 -117 -248 -432 -303 -626 -109 -27 27 -61 75 -76 107 -24 50 -27 69
-27 162 0 93 3 112 27 162 50 107 163 194 280 217 61 12 78 12 139 1z"/>
<path d="M2650 4511 c-55 -29 -75 -64 -75 -131 0 -68 21 -105 76 -132 32 -17
109 -18 1194 -18 1111 0 1162 1 1195 19 42 22 80 83 80 129 0 51 -35 109 -80
132 -39 20 -56 20 -1197 20 -1108 0 -1160 -1 -1193 -19z"/>
<path d="M3532 3239 c-73 -12 -192 -61 -258 -105 -76 -51 -185 -171 -228 -253
-103 -196 -102 -446 1 -644 54 -104 192 -240 293 -289 123 -59 180 -72 315
-72 135 -1 210 17 322 76 154 81 282 233 334 398 l17 55 348 5 c392 6 385 4
425 81 24 48 24 90 0 138 -40 77 -33 75 -425 81 l-348 5 -17 55 c-67 211 -240
381 -461 451 -76 23 -237 33 -318 18z m263 -320 c105 -39 197 -138 230 -246
58 -192 -45 -401 -233 -474 -78 -30 -196 -30 -273 0 -150 58 -249 201 -249
361 0 272 268 455 525 359z"/>
<path d="M80 2691 c-42 -22 -80 -84 -80 -131 0 -47 38 -109 80 -131 33 -18 87
-19 1278 -19 1377 0 1286 -4 1335 64 31 43 31 129 0 172 -49 68 42 64 -1335
64 -1191 0 -1245 -1 -1278 -19z"/>
<path d="M1325 1416 c-245 -56 -443 -235 -516 -466 l-17 -55 -348 -5 c-392 -6
-385 -4 -425 -81 -24 -49 -24 -90 1 -139 38 -74 42 -74 429 -80 l343 -5 17
-55 c56 -179 212 -350 387 -423 74 -31 195 -57 269 -57 31 0 91 7 133 16 153
31 266 96 373 212 121 131 179 281 179 462 0 195 -60 340 -200 481 -94 95
-156 135 -275 174 -98 33 -255 43 -350 21z m280 -317 c146 -54 245 -200 245
-359 0 -216 -168 -383 -385 -383 -216 0 -385 168 -385 382 1 274 267 457 525
360z"/>
<path d="M2482 873 c-105 -52 -107 -210 -2 -263 39 -20 56 -20 1280 -20 1224
0 1241 0 1280 20 45 23 80 81 80 132 0 46 -38 107 -80 129 -33 18 -86 19
-1280 19 -1126 0 -1248 -2 -1278 -17z"/>
</g>
</svg>
